<?xml version="1.0" encoding="UTF-8" standalone="no"?>
<svg width="25px" height="25px" viewBox="0 0 25 25" version="1.1" xmlns="http://www.w3.org/2000/svg" xmlns:xlink="http://www.w3.org/1999/xlink">
    <!-- Generator: Sketch 42 (36781) - http://www.bohemiancoding.com/sketch -->
    <title>arrow-right-circle</title>
    <desc>Created with Sketch.</desc>
    <defs></defs>
    <g id="Page-1" stroke="none" stroke-width="1" fill="none" fill-rule="evenodd">
        <g id="Overview" transform="translate(-1181.000000, -558.000000)" fill-rule="nonzero" fill="#004990">
            <g id="arrow-right-circle" transform="translate(1181.000000, 558.000000)">
                <g id="Group">
                    <path d="M21.3394737,3.66052632 C18.9789474,1.3 15.8394737,0 12.5,0 C9.16052632,0 6.02236842,1.3 3.66052632,3.66052632 C1.29868421,6.02105263 0,9.16052632 0,12.4986842 C0,15.8368421 1.3,18.9763158 3.66052632,21.3381579 C6.02105263,23.7 9.16052632,24.9986842 12.5,24.9986842 C15.8394737,24.9986842 18.9776316,23.6986842 21.3394737,21.3381579 C23.7013158,18.9776316 25,15.8381579 25,12.4986842 C25,9.15921053 23.7,6.02105263 21.3394737,3.66052632 L21.3394737,3.66052632 Z M12.5,23.6842105 C6.33289474,23.6842105 1.31578947,18.6671053 1.31578947,12.5 C1.31578947,6.33289474 6.33289474,1.31578947 12.5,1.31578947 C18.6671053,1.31578947 23.6842105,6.33289474 23.6842105,12.5 C23.6842105,18.6671053 18.6671053,23.6842105 12.5,23.6842105 Z" id="Shape"></path>
                    <path d="M20.2013158,12.0355263 L14.9381579,6.77236842 C14.6815789,6.51578947 14.2644737,6.51578947 14.0078947,6.77236842 C13.7513158,7.02894737 13.7513158,7.44605263 14.0078947,7.70263158 L18.1486842,11.8421053 L4.60526316,11.8421053 C4.24210526,11.8421053 3.94736842,12.1368421 3.94736842,12.5 C3.94736842,12.8631579 4.24210526,13.1578947 4.60526316,13.1578947 L18.1486842,13.1578947 L14.0092105,17.2986842 C13.7526316,17.5552632 13.7526316,17.9723684 14.0092105,18.2289474 C14.1381579,18.3578947 14.3065789,18.4210526 14.4736842,18.4210526 C14.6407895,18.4210526 14.8105263,18.3565789 14.9381579,18.2276316 L20.2013158,12.9644737 C20.4578947,12.7078947 20.4578947,12.2907895 20.2013158,12.0342105 L20.2013158,12.0355263 Z" id="Shape"></path>
                </g>
            </g>
        </g>
    </g>
</svg>