<?xml version="1.0" encoding="UTF-8" standalone="no"?>
<svg width="25px" height="25px" viewBox="0 0 25 25" version="1.1" xmlns="http://www.w3.org/2000/svg" xmlns:xlink="http://www.w3.org/1999/xlink">
    <!-- Generator: Sketch 42 (36781) - http://www.bohemiancoding.com/sketch -->
    <title>arrow-left-circle</title>
    <desc>Created with Sketch.</desc>
    <defs></defs>
    <g id="Page-1" stroke="none" stroke-width="1" fill="none" fill-rule="evenodd">
        <g id="Overview" transform="translate(-801.000000, -558.000000)" fill-rule="nonzero" fill="#B4B4B4">
            <g id="arrow-left-circle" transform="translate(813.500000, 570.500000) scale(-1, 1) translate(-813.500000, -570.500000) translate(801.000000, 558.000000)">
                <g id="Group">
                    <path d="M21.3394737,3.66052632 C18.9789474,1.3 15.8394737,0 12.5,0 C9.16052632,0 6.02236842,1.3 3.66052632,3.66052632 C1.29868421,6.02105263 0,9.16052632 0,12.4986842 C0,15.8368421 1.3,18.9763158 3.66052632,21.3381579 C6.02105263,23.7 9.16052632,24.9986842 12.5,24.9986842 C15.8394737,24.9986842 18.9776316,23.6986842 21.3394737,21.3381579 C23.7013158,18.9776316 25,15.8381579 25,12.4986842 C25,9.15921053 23.7,6.02105263 21.3394737,3.66052632 L21.3394737,3.66052632 Z M12.5,23.6842105 C6.33289474,23.6842105 1.31578947,18.6671053 1.31578947,12.5 C1.31578947,6.33289474 6.33289474,1.31578947 12.5,1.31578947 C18.6671053,1.31578947 23.6842105,6.33289474 23.6842105,12.5 C23.6842105,18.6671053 18.6671053,23.6842105 12.5,23.6842105 Z" id="Shape"></path>
                    <path d="M20.2539474,12.4555921 L14.9907895,7.19243421 C14.7342105,6.93585526 14.3171053,6.93585526 14.0605263,7.19243421 C13.8039474,7.44901316 13.8039474,7.86611842 14.0605263,8.12269737 L18.2013158,12.2621711 L4.65789474,12.2621711 C4.29473684,12.2621711 4,12.5569079 4,12.9200658 C4,13.2832237 4.29473684,13.5779605 4.65789474,13.5779605 L18.2013158,13.5779605 L14.0618421,17.71875 C13.8052632,17.9753289 13.8052632,18.3924342 14.0618421,18.6490132 C14.1907895,18.7779605 14.3592105,18.8411184 14.5263158,18.8411184 C14.6934211,18.8411184 14.8631579,18.7766447 14.9907895,18.6476974 L20.2539474,13.3845395 C20.5105263,13.1279605 20.5105263,12.7108553 20.2539474,12.4542763 L20.2539474,12.4555921 Z" id="Shape"></path>
                </g>
            </g>
        </g>
    </g>
</svg>