<?xml version="1.0" encoding="UTF-8" standalone="no"?>
<svg width="12px" height="18px" viewBox="0 0 12 18" version="1.1" xmlns="http://www.w3.org/2000/svg" xmlns:xlink="http://www.w3.org/1999/xlink">
    <!-- Generator: Sketch 42 (36781) - http://www.bohemiancoding.com/sketch -->
    <title>ideas</title>
    <desc>Created with Sketch.</desc>
    <defs></defs>
    <g id="Page-1" stroke="none" stroke-width="1" fill="none" fill-rule="evenodd">
        <g id="Overview" transform="translate(-802.000000, -407.000000)" fill-rule="nonzero" fill="#004990">
            <g id="Group-5" transform="translate(782.000000, 386.000000)">
                <g id="Group-4" transform="translate(20.000000, 20.000000)">
                    <g id="ideas" transform="translate(0.000000, 1.000000)">
                        <g id="Group">
                            <path d="M5.60984497,1.125 C6.81091135,1.125 7.93961081,1.594125 8.78837934,2.4463125 C9.63434295,3.2956875 10.0993985,4.4240625 10.0977156,5.6233125 C10.0960326,7.0070625 9.55412226,7.7473125 8.98023581,8.530875 C8.45347199,9.250875 7.8565852,10.0665 7.85378028,11.2471875 C7.85265831,11.8209375 7.65631397,11.9750625 7.45492078,12.0841875 C7.09813507,12.277125 6.47768695,12.375 5.60984497,12.375 C4.27638641,12.375 3.76420818,12.1415625 3.56898581,11.94525 C3.51849726,11.894625 3.36478769,11.7399375 3.36590966,11.25225 C3.36871458,10.0670625 2.7679009,9.2491875 2.23777118,8.5275 C1.66276276,7.7450625 1.11973042,7.005375 1.12197435,5.626125 C1.1236573,4.4229375 1.59095683,3.2923125 2.43804241,2.442375 C3.28512799,1.5924375 4.41158352,1.1244375 5.60984497,1.1244375 L5.60984497,1.125 Z M5.60984497,0 C2.51153129,0 0.00449456672,2.5183125 6.69609712e-06,5.625 C-0.00448117452,8.7316875 2.24842988,9.385875 2.24394201,11.25 C2.23945414,13.114125 3.75074457,13.5 5.60984497,13.5 C7.46894538,13.5 8.97126007,13.114125 8.97574794,11.25 C8.98023581,9.385875 11.2151954,8.7316875 11.2196832,5.625 C11.2241711,2.5183125 8.70815865,0 5.60984497,0 L5.60984497,0 Z" id="Shape"></path>
                            <path d="M5.79683288,14.7055 C4.4123248,14.7055 3.26174697,14.3966875 3.03342655,13 C3.00649933,13.1884375 2.99191375,13.3825 2.99191375,13.5805 C2.99191375,15.444625 4.24795654,15.8305 5.79683288,15.8305 C7.34570923,15.8305 8.60175202,15.444625 8.60175202,13.5805 C8.60175202,13.3825 8.58716644,13.189 8.56023922,13 C8.33135782,14.3966875 7.18134097,14.7055 5.79683288,14.7055 L5.79683288,14.7055 Z" id="Shape"></path>
                            <path d="M5.23584906,16.7055 C4.127906,16.7055 3.20789252,16.3966875 3.02501179,15 C3.00313342,15.1884375 2.99191375,15.3825 2.99191375,15.5805 C2.99191375,17.444625 3.99663578,17.8305 5.23584906,17.8305 C6.47506233,17.8305 7.47978437,17.444625 7.47978437,15.5805 C7.47978437,15.3825 7.46856469,15.189 7.44668632,15 C7.26380559,16.3966875 6.34379212,16.7055 5.23584906,16.7055 Z" id="Shape"></path>
                        </g>
                    </g>
                </g>
            </g>
        </g>
    </g>
</svg>