<?xml version="1.0" encoding="UTF-8" standalone="no"?>
<svg width="15px" height="14px" viewBox="0 0 15 14" version="1.1" xmlns="http://www.w3.org/2000/svg" xmlns:xlink="http://www.w3.org/1999/xlink">
    <!-- Generator: Sketch 42 (36781) - http://www.bohemiancoding.com/sketch -->
    <title>0991 star empty 2.1</title>
    <desc>Created with Sketch.</desc>
    <defs></defs>
    <g id="Page-1" stroke="none" stroke-width="1" fill="none" fill-rule="evenodd">
        <g id="Overview" transform="translate(-1084.000000, -731.000000)" fill-rule="nonzero" fill="#000000">
            <g id="ratings" transform="translate(1034.000000, 731.000000)">
                <g id="Group-2">
                    <g id="0991-star-empty-2.1" transform="translate(50.000000, 0.000000)">
                        <path d="M14.6555161,5.27890323 C14.5952258,5.0926129 14.4218065,4.9663871 14.2258065,4.9663871 L9.37864516,4.96616129 L7.88087097,0.377774194 C7.82012903,0.191935484 7.64693548,0.0661612903 7.4516129,0.0661612903 C7.25629032,0.0661612903 7.08287097,0.191935484 7.02235484,0.377774194 L5.52458065,4.96616129 L0.677419355,4.9663871 C0.481645161,4.9663871 0.308225806,5.0926129 0.247709677,5.27890323 C0.187193548,5.46519355 0.254032258,5.66909677 0.412774194,5.78380645 L4.33232258,8.61948387 L2.83567742,13.2065161 C2.77493548,13.3923548 2.84087097,13.5962581 2.99893548,13.7114194 C3.157,13.8265806 3.37129032,13.8270323 3.52958065,13.7123226 L7.4516129,10.8755161 L11.3736452,13.7123226 C11.4526774,13.7694516 11.5454839,13.798129 11.6382903,13.798129 C11.7317742,13.798129 11.8250323,13.7692258 11.9042903,13.7114194 C12.0623548,13.5962581 12.1282903,13.3923548 12.0675484,13.2065161 L10.5706774,8.61948387 L14.4902258,5.78380645 C14.6489677,5.66909677 14.7155806,5.46519355 14.6550645,5.27890323 L14.6555161,5.27890323 Z M9.77470968,8.08070968 C9.61574194,8.19564516 9.54912903,8.40022581 9.61009677,8.58674194 L10.7784194,12.1673548 L7.71625806,9.95264516 C7.63722581,9.89551613 7.54441935,9.86683871 7.4516129,9.86683871 L7.4516129,1.97332258 L8.62151613,5.558 C8.68225806,5.74383871 8.85545161,5.8693871 9.05077419,5.8693871 L12.831,5.8693871 L9.77448387,8.08048387 L9.77470968,8.08070968 Z" id="Shape"></path>
                    </g>
                </g>
            </g>
        </g>
    </g>
</svg>