<?xml version="1.0" encoding="UTF-8" standalone="no"?>
<svg width="15px" height="14px" viewBox="0 0 15 14" version="1.1" xmlns="http://www.w3.org/2000/svg" xmlns:xlink="http://www.w3.org/1999/xlink">
    <!-- Generator: Sketch 42 (36781) - http://www.bohemiancoding.com/sketch -->
    <title>0990 star empty.1</title>
    <desc>Created with Sketch.</desc>
    <defs></defs>
    <g id="Page-1" stroke="none" stroke-width="1" fill="none" fill-rule="evenodd">
        <g id="Overview" transform="translate(-1101.000000, -731.000000)" fill-rule="nonzero" fill="#000000">
            <g id="ratings" transform="translate(1034.000000, 731.000000)">
                <g id="Group-2">
                    <g id="0990-star-empty.1" transform="translate(67.000000, 0.000000)">
                        <path d="M11.4124839,13.7983548 C11.3196774,13.7983548 11.226871,13.7696774 11.1478387,13.7125484 L7.22580645,10.8757419 L3.30377419,13.7125484 C3.14525806,13.8272581 2.93096774,13.8268065 2.77312903,13.7116452 C2.61529032,13.5964839 2.54912903,13.3925806 2.60987097,13.2067419 L4.10674194,8.61970968 L0.187193548,5.78425806 C0.0284516129,5.66954839 -0.0381612903,5.46541935 0.0221290323,5.27935484 C0.0824193548,5.09329032 0.256064516,4.96683871 0.45183871,4.96683871 L5.299,4.9666129 L6.79677419,0.378225806 C6.85729032,0.192387097 7.03070968,0.0666129032 7.22603226,0.0666129032 C7.42135484,0.0666129032 7.59477419,0.192387097 7.65529032,0.378225806 L9.15306452,4.9666129 L14.0002258,4.96683871 C14.196,4.96683871 14.3696452,5.09306452 14.4299355,5.27935484 C14.4902258,5.46564516 14.4236129,5.66954839 14.2650968,5.78425806 L10.3455484,8.61993548 L11.8424194,13.2069677 C11.9031613,13.3928065 11.8372258,13.5967097 11.6791613,13.711871 C11.5999032,13.7696774 11.5064194,13.7985806 11.4131613,13.7985806 L11.4124839,13.7983548 Z M1.84641935,5.8696129 L4.90293548,8.08070968 C5.06190323,8.19564516 5.12851613,8.40022581 5.06754839,8.58674194 L3.89922581,12.1673548 L6.9613871,9.95241935 C7.11945161,9.83816129 7.33283871,9.83816129 7.49067742,9.95241935 L10.5528387,12.167129 L9.38451613,8.58651613 C9.32354839,8.4 9.39016129,8.19541935 9.54912903,8.08048387 L12.6054194,5.8693871 L8.82519355,5.8693871 C8.62987097,5.8693871 8.45645161,5.7436129 8.39593548,5.558 L7.22603226,1.97332258 L6.05612903,5.558 C5.9956129,5.74383871 5.82219355,5.8693871 5.62687097,5.8693871 L1.84664516,5.8696129 L1.84641935,5.8696129 Z" id="Shape"></path>
                    </g>
                </g>
            </g>
        </g>
    </g>
</svg>